<?xml version="1.0" standalone="no"?>
<!DOCTYPE svg PUBLIC "-//W3C//DTD SVG 20010904//EN"
 "http://www.w3.org/TR/2001/REC-SVG-20010904/DTD/svg10.dtd">
<svg version="1.0" xmlns="http://www.w3.org/2000/svg"
 width="1280.000000pt" height="1257.000000pt" viewBox="0 0 1280.000000 1257.000000"
 preserveAspectRatio="xMidYMid meet">
<g transform="translate(0.000000,1257.000000) scale(0.100000,-0.100000)"
fill="#000000" stroke="none">
<path d="M6505 12479 c-276 -7 -492 -28 -883 -84 -809 -118 -1506 -345 -1997
-653 -500 -313 -907 -758 -1172 -1280 -234 -463 -336 -913 -335 -1477 0 -553
88 -1091 313 -1915 113 -414 214 -698 335 -945 126 -259 190 -334 514 -608
322 -273 386 -353 600 -747 264 -485 449 -731 840 -1120 203 -203 250 -265
253 -341 2 -29 -5 -37 -58 -75 -103 -72 -192 -111 -319 -138 -233 -49 -386
-149 -828 -537 -458 -403 -620 -480 -1493 -709 -438 -115 -707 -214 -878 -323
-32 -20 -94 -55 -140 -78 -247 -124 -445 -266 -642 -464 -181 -181 -334 -395
-444 -620 -55 -112 -121 -275 -136 -337 l-7 -28 6341 0 c3488 0 6341 4 6341 8
0 13 -271 286 -365 369 -287 252 -733 553 -819 553 -30 0 -39 4 -43 20 -4 15
-54 45 -172 103 -455 227 -842 380 -1305 514 -79 23 -133 45 -140 55 -11 18
16 154 116 578 95 407 216 831 280 982 27 63 42 68 452 138 132 22 293 52 358
66 365 77 581 213 678 427 55 121 64 176 65 372 0 208 2 198 -100 415 -138
291 -139 360 -12 620 54 111 61 133 65 198 4 63 1 79 -22 126 -15 30 -63 93
-106 140 -44 47 -80 89 -80 94 0 4 20 31 45 59 56 63 75 108 75 170 0 78 -16
114 -111 260 -114 171 -140 229 -147 314 -8 119 27 186 201 377 46 51 96 116
111 146 37 74 51 172 37 260 -30 181 -155 305 -565 556 -65 40 -184 124 -265
187 -389 303 -529 466 -562 657 -14 82 -8 157 26 321 29 142 33 299 10 390
-20 79 -81 204 -138 285 -25 36 -107 137 -183 225 -201 234 -243 303 -379 630
-97 232 -166 358 -298 545 -433 613 -1032 1030 -1742 1210 -382 97 -640 121
-1170 109z"/>
</g>
</svg>
